<?xml version="1.0" standalone="no"?><!DOCTYPE svg PUBLIC "-//W3C//DTD SVG 1.1//EN" "http://www.w3.org/Graphics/SVG/1.1/DTD/svg11.dtd"><svg t="1494555629205" class="icon" style="" viewBox="0 0 1024 1024" version="1.1" xmlns="http://www.w3.org/2000/svg" p-id="1475" xmlns:xlink="http://www.w3.org/1999/xlink" width="24" height="24"><defs><style type="text/css"></style></defs><path d="M524.8 571.733333c-25.6 21.333333-59.733333 34.133333-93.866667 34.133334-34.133333 0-72.533333-12.8-98.133333-34.133334-38.4 8.533333-72.533333 42.666667-72.533333 81.066667v55.466667c0 46.933333 46.933333 76.8 98.133333 76.8h149.333333c51.2 0 85.333333-29.866667 85.333334-76.8v-55.466667c0-38.4-29.866667-72.533333-68.266667-81.066667zM430.933333 571.733333c72.533333 0 128-64 128-149.333333s-59.733333-149.333333-128-149.333333c-72.533333 0-128 64-128 149.333333s55.466667 149.333333 128 149.333333z" p-id="1476" fill="#148014"></path><path d="M827.733333 119.466667H200.533333c-42.666667 0-81.066667 34.133333-81.066666 76.8v648.533333c0 42.666667 34.133333 55.466667 81.066666 55.466667h627.2c42.666667 0 76.8-12.8 76.8-55.466667V196.266667c0-42.666667-34.133333-76.8-76.8-76.8z m-200.533333 597.333333c0 59.733333-46.933333 89.6-106.666667 89.6H337.066667c-59.733333 0-123.733333-25.6-123.733334-89.6v-72.533333c4.266667-46.933333 38.4-89.6 85.333334-102.4-25.6-34.133333-38.4-72.533333-38.4-119.466667 0-102.4 76.8-183.466667 166.4-183.466667s170.666667 81.066667 170.666666 183.466667c0 42.666667-17.066667 85.333333-38.4 115.2 42.666667 17.066667 72.533333 55.466667 72.533334 102.4l-4.266667 76.8z m170.666667-8.533333h-110.933334c-8.533333 0-17.066667-8.533333-17.066666-21.333334 0-8.533333 8.533333-21.333333 17.066666-21.333333h110.933334c8.533333 0 17.066667 8.533333 17.066666 21.333333 4.266667 12.8-4.266667 21.333333-17.066666 21.333334z m0-115.2h-110.933334c-8.533333 0-17.066667-8.533333-17.066666-21.333334 0-8.533333 8.533333-21.333333 17.066666-21.333333h110.933334c8.533333 0 17.066667 8.533333 17.066666 21.333333 4.266667 8.533333-4.266667 21.333333-17.066666 21.333334z m0-102.4h-149.333334c-8.533333 0-17.066667-8.533333-17.066666-17.066667s8.533333-17.066667 17.066666-17.066667h149.333334c8.533333 0 17.066667 8.533333 17.066666 17.066667 4.266667 8.533333-4.266667 17.066667-17.066666 17.066667z m0-115.2h-149.333334c-8.533333 0-17.066667-8.533333-17.066666-21.333334 0-8.533333 8.533333-21.333333 17.066666-21.333333h149.333334c8.533333 0 17.066667 8.533333 17.066666 21.333333 4.266667 8.533333-4.266667 21.333333-17.066666 21.333334z" p-id="1477" fill="#148014"></path></svg>