<?xml version="1.0" standalone="no"?><!DOCTYPE svg PUBLIC "-//W3C//DTD SVG 1.1//EN" "http://www.w3.org/Graphics/SVG/1.1/DTD/svg11.dtd"><svg t="1494555645428" class="icon" style="" viewBox="0 0 1024 1024" version="1.1" xmlns="http://www.w3.org/2000/svg" p-id="1632" xmlns:xlink="http://www.w3.org/1999/xlink" width="24" height="24"><defs><style type="text/css"></style></defs><path d="M951.466667 921.6c0 21.333333-17.066667 38.4-42.666667 38.4H115.2c-21.333333 0-42.666667-17.066667-42.666667-38.4 0 0 0-136.533333 110.933334-183.466667 68.266667-29.866667 42.666667-4.266667 128-38.4 85.333333-29.866667 106.666667-42.666667 106.666666-42.666666l-4.266666-55.466667s-93.866667-25.6-110.933334-119.466667c-29.866667 8.533333-38.4-29.866667-42.666666-51.2 0-21.333333-17.066667-93.866667 17.066666-85.333333-4.266667-51.2-12.8-93.866667-8.533333-115.2 4.266667-38.4-4.266667-42.666667 34.133333-72.533333 8.533333-8.533333-8.533333-42.666667-4.266666-55.466667 8.533333-21.333333 85.333333-8.533333 98.133333-17.066667 29.866667-12.8 68.266667-21.333333 106.666667-21.333333 162.133333 4.266667 226.133333 89.6 234.666666 166.4 4.266667 21.333333-4.266667 64-8.533333 110.933333 34.133333-4.266667 21.333333 64 17.066667 85.333334 0 21.333333-12.8 59.733333-42.666667 51.2-12.8 93.866667-93.866667 119.466667-93.866667 119.466666l-4.266666 55.466667 106.666666 42.666667c85.333333 29.866667 59.733333 8.533333 128 38.4 110.933333 51.2 110.933333 187.733333 110.933334 187.733333z" p-id="1633" fill="#148014"></path></svg>