<?xml version="1.0" standalone="no"?><!DOCTYPE svg PUBLIC "-//W3C//DTD SVG 1.1//EN" "http://www.w3.org/Graphics/SVG/1.1/DTD/svg11.dtd"><svg t="1494555659331" class="icon" style="" viewBox="0 0 1024 1024" version="1.1" xmlns="http://www.w3.org/2000/svg" p-id="1788" xmlns:xlink="http://www.w3.org/1999/xlink" width="24" height="24"><defs><style type="text/css"></style></defs><path d="M512 384c-68.266667 0-123.733333 55.466667-123.733333 123.733333 0 68.266667 55.466667 123.733333 123.733333 123.733334s128-51.2 128-119.466667c0-68.266667-59.733333-128-128-128z m0 209.066667c-46.933333 0-85.333333-38.4-85.333333-85.333334s38.4-85.333333 85.333333-85.333333 85.333333 38.4 85.333333 85.333333-38.4 85.333333-85.333333 85.333334z m332.8-89.6s0-4.266667 0 0v-4.266667c-59.733333-140.8-192-217.6-332.8-217.6s-273.066667 81.066667-332.8 217.6v17.066667c59.733333 140.8 192 217.6 332.8 217.6s273.066667-76.8 332.8-217.6V512v-4.266667-4.266666zM512 699.733333c-119.466667 0-234.666667-64-290.133333-187.733333 55.466667-128 170.666667-192 290.133333-192s234.666667 64 290.133333 187.733333c-55.466667 128-174.933333 192-290.133333 192z" p-id="1789" fill="#148014"></path><path d="M512 955.733333C264.533333 955.733333 64 755.2 64 512 64 264.533333 264.533333 64 512 64S960 264.533333 960 512c0 243.2-200.533333 443.733333-448 443.733333z m0-866.133333c-230.4 0-418.133333 187.733333-418.133333 418.133333s187.733333 418.133333 418.133333 418.133334 418.133333-187.733333 418.133333-418.133334-187.733333-418.133333-418.133333-418.133333z" p-id="1790" fill="#148014"></path></svg>