<?xml version="1.0" standalone="no"?><!DOCTYPE svg PUBLIC "-//W3C//DTD SVG 1.1//EN" "http://www.w3.org/Graphics/SVG/1.1/DTD/svg11.dtd"><svg t="1494555619000" class="icon" style="" viewBox="0 0 1024 1024" version="1.1" xmlns="http://www.w3.org/2000/svg" p-id="1319" xmlns:xlink="http://www.w3.org/1999/xlink" width="24" height="24"><defs><style type="text/css"></style></defs><path d="M823.466667 823.466667h-375.466667l-123.733333 187.733333-123.733334-187.733333c-102.4 0-187.733333-85.333333-187.733333-187.733334V196.266667C12.8 93.866667 98.133333 8.533333 200.533333 8.533333h622.933334c102.4 0 187.733333 85.333333 187.733333 187.733334v439.466666c0 102.4-85.333333 187.733333-187.733333 187.733334z m59.733333-627.2c0-34.133333-29.866667-64-64-64H196.266667c-34.133333 0-64 29.866667-64 64v439.466666c0 34.133333 29.866667 64 64 64h42.666666l85.333334 123.733334 85.333333-123.733334h418.133333c34.133333 0 64-29.866667 64-64l-8.533333-439.466666zM260.266667 384h499.2v64H260.266667V384z m0-123.733333h499.2v64H260.266667V260.266667z m247.466666 311.466666H260.266667V512H512l-4.266667 59.733333z" p-id="1320" fill="#148014"></path></svg>